<svg width="165" height="36" viewBox="0 0 165 36" fill="none" xmlns="http://www.w3.org/2000/svg">
<g clip-path="url(#clip0)">
<path d="M0 8.96822H5.60386L12.1029 22.9291L19.9507 8.96822H24.2059L12.1029 34.9252L0 8.96822Z" fill="#FF6F00"/>
<path d="M15.649 35.7457L27.7868 9.14157L37.8551 29.1929L47.691 9.14157L60.7472 35.6533H56.1665L47.9235 20.9413L40.3664 35.6533H35.7973L27.5543 21.1724L20.4622 35.6533L15.649 35.7457Z" fill="#FF6F00"/>
<path d="M71.455 8.99133C64.0026 8.99133 57.9569 14.9663 57.9569 22.3396C57.9569 29.713 64.0026 35.688 71.455 35.688C78.9075 35.688 84.9531 29.713 84.9531 22.3396C84.9531 14.9778 78.9075 8.99133 71.455 8.99133ZM66.4906 30.7185C56.8408 27.7599 67.5486 17.0581 67.5486 17.0581C67.5486 17.0581 77.3263 8.99133 79.8841 18.2947C82.4302 27.6212 76.1404 33.677 66.4906 30.7185Z" fill="#FF6F00"/>
<path d="M108.334 0V12.7242C105.95 10.6093 102.799 9.30337 99.3349 9.30337C91.8824 9.30337 85.8368 15.2783 85.8368 22.6517C85.8368 30.025 91.8824 36 99.3349 36C102.799 36 105.939 34.7056 108.334 32.5791V36H114.077V0H108.334ZM94.3704 31.0421C84.7206 28.0835 95.4284 17.3817 95.4284 17.3817C95.4284 17.3817 105.206 9.31493 107.764 18.6183C110.322 27.9332 104.02 33.9891 94.3704 31.0421Z" fill="white"/>
<path d="M141.073 8.96822L153.374 35.9653L165 8.96822H160.536L153.037 23.9923L146.444 8.96822H141.073Z" fill="white"/>
<path d="M138.167 19.7162C138.167 21.2302 136.76 22.4437 135.039 22.4437C133.307 22.4437 131.912 21.2186 131.912 19.7162C131.912 18.2022 133.318 16.9888 135.039 16.9888C136.76 16.9888 138.167 18.2138 138.167 19.7162Z" fill="white"/>
<path d="M130.296 32.9836C124.645 32.8681 120.099 28.3377 120.099 22.7557C120.099 17.1043 124.761 12.5162 130.505 12.5162C136.144 12.5162 140.724 16.931 140.899 22.4437H143.852C143.852 14.9778 137.504 8.92199 129.668 8.92199C121.832 8.92199 115.484 14.9778 115.484 22.4437C115.484 29.9095 121.832 35.9653 129.668 35.9653C129.877 35.9653 130.086 35.9422 130.284 35.9307V32.9836H130.296Z" fill="white"/>

</g>
<defs>
<clipPath id="clip0">
<rect width="165" height="36" fill="white"/>
</clipPath>
</defs>
</svg>

